<svg width="428" height="51" viewBox="0 0 428 51" fill="none" xmlns="http://www.w3.org/2000/svg">
<rect x="1" y="1" width="426" height="49" rx="7" fill="url(#paint0_linear_2_466)" stroke="#868686" stroke-width="2"/>
<path d="M167.045 32C166.65 32 166.288 31.904 165.957 31.712C165.637 31.52 165.381 31.2587 165.189 30.928C164.997 30.5973 164.901 30.2347 164.901 29.84V29.072H166.821V29.776C166.821 29.8613 166.848 29.9307 166.901 29.984C166.954 30.0373 167.024 30.064 167.109 30.064H174.181C174.266 30.064 174.336 30.0373 174.389 29.984C174.453 29.9307 174.485 29.8613 174.485 29.776V27.488C174.485 27.4133 174.453 27.3493 174.389 27.296C174.336 27.232 174.266 27.2 174.181 27.2H167.045C166.65 27.2 166.288 27.104 165.957 26.912C165.637 26.72 165.381 26.464 165.189 26.144C164.997 25.8133 164.901 25.4507 164.901 25.056V22.64C164.901 22.2453 164.997 21.8827 165.189 21.552C165.381 21.2213 165.637 20.96 165.957 20.768C166.288 20.576 166.65 20.48 167.045 20.48H174.261C174.656 20.48 175.013 20.576 175.333 20.768C175.664 20.96 175.925 21.2213 176.117 21.552C176.32 21.8827 176.421 22.2453 176.421 22.64V23.408H174.485V22.704C174.485 22.6187 174.453 22.5493 174.389 22.496C174.336 22.4427 174.266 22.416 174.181 22.416H167.109C167.024 22.416 166.954 22.4427 166.901 22.496C166.848 22.5493 166.821 22.6187 166.821 22.704V24.992C166.821 25.0667 166.848 25.136 166.901 25.2C166.954 25.2533 167.024 25.28 167.109 25.28H174.261C174.656 25.28 175.013 25.376 175.333 25.568C175.664 25.76 175.925 26.0213 176.117 26.352C176.32 26.672 176.421 27.0293 176.421 27.424V29.84C176.421 30.2347 176.32 30.5973 176.117 30.928C175.925 31.2587 175.664 31.52 175.333 31.712C175.013 31.904 174.656 32 174.261 32H167.045ZM181.848 32C181.454 32 181.091 31.904 180.76 31.712C180.44 31.5093 180.184 31.248 179.992 30.928C179.8 30.608 179.704 30.2507 179.704 29.856V22.72H181.608V29.792C181.608 29.8773 181.635 29.952 181.688 30.016C181.752 30.0693 181.827 30.096 181.912 30.096H186.92C187.006 30.096 187.075 30.0693 187.128 30.016C187.192 29.952 187.224 29.8773 187.224 29.792V22.72H189.128V29.856C189.128 30.2507 189.032 30.608 188.84 30.928C188.648 31.248 188.392 31.5093 188.072 31.712C187.752 31.904 187.39 32 186.984 32H181.848ZM192.117 32V19.68H194.021V22.72H199.413C199.797 22.72 200.149 22.8213 200.469 23.024C200.8 23.216 201.061 23.472 201.253 23.792C201.445 24.112 201.541 24.4693 201.541 24.864V29.856C201.541 30.2507 201.445 30.608 201.253 30.928C201.061 31.248 200.8 31.5093 200.469 31.712C200.149 31.904 199.797 32 199.413 32H192.117ZM194.325 30.096H199.349C199.424 30.096 199.488 30.0693 199.541 30.016C199.605 29.952 199.637 29.8773 199.637 29.792V24.928C199.637 24.8427 199.605 24.7733 199.541 24.72C199.488 24.656 199.424 24.624 199.349 24.624H194.325C194.25 24.624 194.181 24.656 194.117 24.72C194.053 24.7733 194.021 24.8427 194.021 24.928V29.792C194.021 29.8773 194.053 29.952 194.117 30.016C194.181 30.0693 194.25 30.096 194.325 30.096ZM206.437 32C206.042 32 205.685 31.904 205.365 31.712C205.045 31.5093 204.784 31.248 204.581 30.928C204.389 30.608 204.293 30.2507 204.293 29.856V29.552H206.197V29.792C206.197 29.8773 206.224 29.952 206.277 30.016C206.341 30.0693 206.416 30.096 206.501 30.096H211.509C211.594 30.096 211.664 30.0693 211.717 30.016C211.781 29.952 211.813 29.8773 211.813 29.792V28.608C211.813 28.5333 211.781 28.4693 211.717 28.416C211.664 28.352 211.594 28.32 211.509 28.32H206.437C206.042 28.32 205.685 28.224 205.365 28.032C205.045 27.8293 204.784 27.568 204.581 27.248C204.389 26.928 204.293 26.5707 204.293 26.176V24.864C204.293 24.4693 204.389 24.112 204.581 23.792C204.784 23.472 205.045 23.216 205.365 23.024C205.685 22.8213 206.042 22.72 206.437 22.72H211.573C211.978 22.72 212.341 22.8213 212.661 23.024C212.981 23.216 213.237 23.472 213.429 23.792C213.632 24.112 213.733 24.4693 213.733 24.864V25.168H211.813V24.928C211.813 24.8427 211.781 24.7733 211.717 24.72C211.664 24.656 211.594 24.624 211.509 24.624H206.501C206.416 24.624 206.341 24.656 206.277 24.72C206.224 24.7733 206.197 24.8427 206.197 24.928V26.112C206.197 26.1867 206.224 26.256 206.277 26.32C206.341 26.3733 206.416 26.4 206.501 26.4H211.573C211.978 26.4 212.341 26.5013 212.661 26.704C212.981 26.896 213.237 27.152 213.429 27.472C213.632 27.792 213.733 28.1493 213.733 28.544V29.856C213.733 30.2507 213.632 30.608 213.429 30.928C213.237 31.248 212.981 31.5093 212.661 31.712C212.341 31.904 211.978 32 211.573 32H206.437ZM218.741 32C218.347 32 217.989 31.904 217.669 31.712C217.349 31.5093 217.088 31.248 216.885 30.928C216.693 30.608 216.597 30.2507 216.597 29.856V24.864C216.597 24.4693 216.693 24.112 216.885 23.792C217.088 23.472 217.349 23.216 217.669 23.024C217.989 22.8213 218.347 22.72 218.741 22.72H226.005V24.624H218.805C218.72 24.624 218.645 24.656 218.581 24.72C218.528 24.7733 218.501 24.8427 218.501 24.928V29.792C218.501 29.8773 218.528 29.952 218.581 30.016C218.645 30.0693 218.72 30.096 218.805 30.096H226.021V32H218.741ZM229.26 32V24.864C229.26 24.4693 229.356 24.112 229.548 23.792C229.751 23.472 230.012 23.216 230.332 23.024C230.663 22.8213 231.02 22.72 231.404 22.72H236.572V24.624H231.468C231.383 24.624 231.308 24.656 231.244 24.72C231.191 24.7733 231.164 24.8427 231.164 24.928V32H229.26ZM239.329 32V22.72H241.233V32H239.329ZM239.329 21.6V19.68H241.233V21.6H239.329ZM244.461 32V19.68H246.365V22.72H251.757C252.141 22.72 252.493 22.8213 252.813 23.024C253.144 23.216 253.405 23.472 253.597 23.792C253.789 24.112 253.885 24.4693 253.885 24.864V29.856C253.885 30.2507 253.789 30.608 253.597 30.928C253.405 31.248 253.144 31.5093 252.813 31.712C252.493 31.904 252.141 32 251.757 32H244.461ZM246.669 30.096H251.693C251.768 30.096 251.832 30.0693 251.885 30.016C251.949 29.952 251.981 29.8773 251.981 29.792V24.928C251.981 24.8427 251.949 24.7733 251.885 24.72C251.832 24.656 251.768 24.624 251.693 24.624H246.669C246.594 24.624 246.525 24.656 246.461 24.72C246.397 24.7733 246.365 24.8427 246.365 24.928V29.792C246.365 29.8773 246.397 29.952 246.461 30.016C246.525 30.0693 246.594 30.096 246.669 30.096ZM258.829 32C258.434 32 258.077 31.904 257.757 31.712C257.437 31.5093 257.175 31.248 256.973 30.928C256.781 30.608 256.685 30.2507 256.685 29.856V24.864C256.685 24.4693 256.781 24.112 256.973 23.792C257.175 23.472 257.437 23.216 257.757 23.024C258.077 22.8213 258.434 22.72 258.829 22.72H263.965C264.37 22.72 264.733 22.8213 265.053 23.024C265.373 23.216 265.629 23.472 265.821 23.792C266.013 24.112 266.109 24.4693 266.109 24.864V28.32H258.589V29.792C258.589 29.8773 258.615 29.952 258.669 30.016C258.733 30.0693 258.807 30.096 258.893 30.096H266.109V32H258.829ZM258.589 26.576H264.205V24.928C264.205 24.8427 264.173 24.7733 264.109 24.72C264.055 24.656 263.986 24.624 263.901 24.624H258.893C258.807 24.624 258.733 24.656 258.669 24.72C258.615 24.7733 258.589 24.8427 258.589 24.928V26.576Z" fill="#F3F3F3"/>
<defs>
<linearGradient id="paint0_linear_2_466" x1="214" y1="5.33721" x2="214" y2="51" gradientUnits="userSpaceOnUse">
<stop/>
<stop offset="1" stop-color="#454545"/>
</linearGradient>
</defs>
</svg>
