<svg width="215" height="51" viewBox="0 0 215 51" fill="none" xmlns="http://www.w3.org/2000/svg">
<rect x="1" y="1" width="213" height="49" rx="7" fill="url(#paint0_linear_2_1302)" stroke="#868686" stroke-width="2"/>
<path d="M59.0451 32C58.6505 32 58.2878 31.904 57.9571 31.712C57.6371 31.52 57.3811 31.2587 57.1891 30.928C56.9971 30.5973 56.9011 30.2347 56.9011 29.84V29.072H58.8211V29.776C58.8211 29.8613 58.8478 29.9307 58.9011 29.984C58.9545 30.0373 59.0238 30.064 59.1091 30.064H66.1811C66.2665 30.064 66.3358 30.0373 66.3891 29.984C66.4531 29.9307 66.4851 29.8613 66.4851 29.776V27.488C66.4851 27.4133 66.4531 27.3493 66.3891 27.296C66.3358 27.232 66.2665 27.2 66.1811 27.2H59.0451C58.6505 27.2 58.2878 27.104 57.9571 26.912C57.6371 26.72 57.3811 26.464 57.1891 26.144C56.9971 25.8133 56.9011 25.4507 56.9011 25.056V22.64C56.9011 22.2453 56.9971 21.8827 57.1891 21.552C57.3811 21.2213 57.6371 20.96 57.9571 20.768C58.2878 20.576 58.6505 20.48 59.0451 20.48H66.2611C66.6558 20.48 67.0131 20.576 67.3331 20.768C67.6638 20.96 67.9251 21.2213 68.1171 21.552C68.3198 21.8827 68.4211 22.2453 68.4211 22.64V23.408H66.4851V22.704C66.4851 22.6187 66.4531 22.5493 66.3891 22.496C66.3358 22.4427 66.2665 22.416 66.1811 22.416H59.1091C59.0238 22.416 58.9545 22.4427 58.9011 22.496C58.8478 22.5493 58.8211 22.6187 58.8211 22.704V24.992C58.8211 25.0667 58.8478 25.136 58.9011 25.2C58.9545 25.2533 59.0238 25.28 59.1091 25.28H66.2611C66.6558 25.28 67.0131 25.376 67.3331 25.568C67.6638 25.76 67.9251 26.0213 68.1171 26.352C68.3198 26.672 68.4211 27.0293 68.4211 27.424V29.84C68.4211 30.2347 68.3198 30.5973 68.1171 30.928C67.9251 31.2587 67.6638 31.52 67.3331 31.712C67.0131 31.904 66.6558 32 66.2611 32H59.0451ZM73.8482 32C73.4536 32 73.0909 31.904 72.7602 31.712C72.4402 31.5093 72.1842 31.248 71.9922 30.928C71.8002 30.608 71.7042 30.2507 71.7042 29.856V22.72H73.6082V29.792C73.6082 29.8773 73.6349 29.952 73.6882 30.016C73.7522 30.0693 73.8269 30.096 73.9122 30.096H78.9202C79.0056 30.096 79.0749 30.0693 79.1282 30.016C79.1922 29.952 79.2242 29.8773 79.2242 29.792V22.72H81.1282V29.856C81.1282 30.2507 81.0322 30.608 80.8402 30.928C80.6482 31.248 80.3922 31.5093 80.0722 31.712C79.7522 31.904 79.3896 32 78.9842 32H73.8482ZM84.1171 32V19.68H86.0211V22.72H91.4131C91.7971 22.72 92.1491 22.8213 92.4691 23.024C92.7998 23.216 93.0611 23.472 93.2531 23.792C93.4451 24.112 93.5411 24.4693 93.5411 24.864V29.856C93.5411 30.2507 93.4451 30.608 93.2531 30.928C93.0611 31.248 92.7998 31.5093 92.4691 31.712C92.1491 31.904 91.7971 32 91.4131 32H84.1171ZM86.3251 30.096H91.3491C91.4238 30.096 91.4878 30.0693 91.5411 30.016C91.6051 29.952 91.6371 29.8773 91.6371 29.792V24.928C91.6371 24.8427 91.6051 24.7733 91.5411 24.72C91.4878 24.656 91.4238 24.624 91.3491 24.624H86.3251C86.2505 24.624 86.1811 24.656 86.1171 24.72C86.0531 24.7733 86.0211 24.8427 86.0211 24.928V29.792C86.0211 29.8773 86.0531 29.952 86.1171 30.016C86.1811 30.0693 86.2505 30.096 86.3251 30.096ZM98.437 32C98.0423 32 97.685 31.904 97.365 31.712C97.045 31.5093 96.7837 31.248 96.581 30.928C96.389 30.608 96.293 30.2507 96.293 29.856V29.552H98.197V29.792C98.197 29.8773 98.2237 29.952 98.277 30.016C98.341 30.0693 98.4157 30.096 98.501 30.096H103.509C103.594 30.096 103.664 30.0693 103.717 30.016C103.781 29.952 103.813 29.8773 103.813 29.792V28.608C103.813 28.5333 103.781 28.4693 103.717 28.416C103.664 28.352 103.594 28.32 103.509 28.32H98.437C98.0423 28.32 97.685 28.224 97.365 28.032C97.045 27.8293 96.7837 27.568 96.581 27.248C96.389 26.928 96.293 26.5707 96.293 26.176V24.864C96.293 24.4693 96.389 24.112 96.581 23.792C96.7837 23.472 97.045 23.216 97.365 23.024C97.685 22.8213 98.0423 22.72 98.437 22.72H103.573C103.978 22.72 104.341 22.8213 104.661 23.024C104.981 23.216 105.237 23.472 105.429 23.792C105.632 24.112 105.733 24.4693 105.733 24.864V25.168H103.813V24.928C103.813 24.8427 103.781 24.7733 103.717 24.72C103.664 24.656 103.594 24.624 103.509 24.624H98.501C98.4157 24.624 98.341 24.656 98.277 24.72C98.2237 24.7733 98.197 24.8427 98.197 24.928V26.112C98.197 26.1867 98.2237 26.256 98.277 26.32C98.341 26.3733 98.4157 26.4 98.501 26.4H103.573C103.978 26.4 104.341 26.5013 104.661 26.704C104.981 26.896 105.237 27.152 105.429 27.472C105.632 27.792 105.733 28.1493 105.733 28.544V29.856C105.733 30.2507 105.632 30.608 105.429 30.928C105.237 31.248 104.981 31.5093 104.661 31.712C104.341 31.904 103.978 32 103.573 32H98.437ZM110.741 32C110.347 32 109.989 31.904 109.669 31.712C109.349 31.5093 109.088 31.248 108.885 30.928C108.693 30.608 108.597 30.2507 108.597 29.856V24.864C108.597 24.4693 108.693 24.112 108.885 23.792C109.088 23.472 109.349 23.216 109.669 23.024C109.989 22.8213 110.347 22.72 110.741 22.72H118.005V24.624H110.805C110.72 24.624 110.645 24.656 110.581 24.72C110.528 24.7733 110.501 24.8427 110.501 24.928V29.792C110.501 29.8773 110.528 29.952 110.581 30.016C110.645 30.0693 110.72 30.096 110.805 30.096H118.021V32H110.741ZM121.26 32V24.864C121.26 24.4693 121.356 24.112 121.548 23.792C121.751 23.472 122.012 23.216 122.332 23.024C122.663 22.8213 123.02 22.72 123.404 22.72H128.572V24.624H123.468C123.383 24.624 123.308 24.656 123.244 24.72C123.191 24.7733 123.164 24.8427 123.164 24.928V32H121.26ZM131.329 32V22.72H133.233V32H131.329ZM131.329 21.6V19.68H133.233V21.6H131.329ZM136.461 32V19.68H138.365V22.72H143.757C144.141 22.72 144.493 22.8213 144.813 23.024C145.144 23.216 145.405 23.472 145.597 23.792C145.789 24.112 145.885 24.4693 145.885 24.864V29.856C145.885 30.2507 145.789 30.608 145.597 30.928C145.405 31.248 145.144 31.5093 144.813 31.712C144.493 31.904 144.141 32 143.757 32H136.461ZM138.669 30.096H143.693C143.768 30.096 143.832 30.0693 143.885 30.016C143.949 29.952 143.981 29.8773 143.981 29.792V24.928C143.981 24.8427 143.949 24.7733 143.885 24.72C143.832 24.656 143.768 24.624 143.693 24.624H138.669C138.594 24.624 138.525 24.656 138.461 24.72C138.397 24.7733 138.365 24.8427 138.365 24.928V29.792C138.365 29.8773 138.397 29.952 138.461 30.016C138.525 30.0693 138.594 30.096 138.669 30.096ZM150.829 32C150.434 32 150.077 31.904 149.757 31.712C149.437 31.5093 149.175 31.248 148.973 30.928C148.781 30.608 148.685 30.2507 148.685 29.856V24.864C148.685 24.4693 148.781 24.112 148.973 23.792C149.175 23.472 149.437 23.216 149.757 23.024C150.077 22.8213 150.434 22.72 150.829 22.72H155.965C156.37 22.72 156.733 22.8213 157.053 23.024C157.373 23.216 157.629 23.472 157.821 23.792C158.013 24.112 158.109 24.4693 158.109 24.864V28.32H150.589V29.792C150.589 29.8773 150.615 29.952 150.669 30.016C150.733 30.0693 150.807 30.096 150.893 30.096H158.109V32H150.829ZM150.589 26.576H156.205V24.928C156.205 24.8427 156.173 24.7733 156.109 24.72C156.055 24.656 155.986 24.624 155.901 24.624H150.893C150.807 24.624 150.733 24.656 150.669 24.72C150.615 24.7733 150.589 24.8427 150.589 24.928V26.576Z" fill="#F3F3F3"/>
<defs>
<linearGradient id="paint0_linear_2_1302" x1="107.5" y1="5.33721" x2="107.5" y2="51" gradientUnits="userSpaceOnUse">
<stop/>
<stop offset="1" stop-color="#454545"/>
</linearGradient>
</defs>
</svg>
